<svg xmlns="http://www.w3.org/2000/svg" viewBox="0 0 64 64" role="img" aria-label="RemoveColor favicon">
  <defs>
    <pattern id="checker" width="8" height="8" patternUnits="userSpaceOnUse">
      <rect width="8" height="8" fill="#fff" />
      <rect width="4" height="4" fill="#d9dee8" />
      <rect x="4" y="4" width="4" height="4" fill="#d9dee8" />
    </pattern>
    <filter id="shadow" x="-18%" y="-18%" width="136%" height="142%">
      <feDropShadow dx="0" dy="4" stdDeviation="4" flood-color="#0f172a" flood-opacity=".16" />
    </filter>
  </defs>

  <rect width="64" height="64" rx="15" fill="#fff" />
  <g filter="url(#shadow)">
    <circle cx="32" cy="32" r="23" fill="#111827" />
    <path fill="#2563eb" d="M32 9a23 23 0 0 1 19.7 11.1L32 32Z" />
    <path fill="#14b8a6" d="M51.7 20.1A23 23 0 0 1 46.5 47.9L32 32Z" />
    <path fill="url(#checker)" d="M46.5 47.9A23 23 0 0 1 17.6 48.6L32 32Z" />
    <path fill="none" stroke="#fff" stroke-width="9.5" stroke-linecap="round" d="M17.5 16.5 47.5 46.5" />
    <path fill="none" stroke="#f59e0b" stroke-width="4.5" stroke-linecap="round" d="M20 19 45 44" />
  </g>
</svg>
